<?xml version="1.0" encoding="UTF-8"?>
<svg version="1.1" xmlns="http://www.w3.org/2000/svg" width="512" height="512">
<path d="M0 0 C0.99868909 -0.00297112 1.99737819 -0.00594224 3.02633059 -0.0090034 C6.35908455 -0.01764635 9.69180239 -0.01919493 13.02456665 -0.02069092 C15.42015662 -0.02532233 17.81574585 -0.03034742 20.21133423 -0.03573608 C26.71186048 -0.04883371 33.21237985 -0.05533771 39.71291685 -0.05974674 C43.78023756 -0.06251761 47.84755591 -0.06675656 51.91487503 -0.07125092 C63.19913521 -0.08343966 74.48339352 -0.09373856 85.76766014 -0.09712601 C86.48888342 -0.09734557 87.2101067 -0.09756514 87.95318524 -0.09779136 C88.67603937 -0.09800964 89.39889351 -0.09822791 90.14365232 -0.09845281 C91.60818887 -0.09889626 93.07272542 -0.09934282 94.53726196 -0.09979248 C95.2637076 -0.10001391 95.99015323 -0.10023534 96.73861237 -0.10046348 C108.48858398 -0.10440477 120.23849332 -0.12184006 131.98844092 -0.145152 C144.08217627 -0.16895013 156.17588049 -0.18133175 168.26963961 -0.18249393 C175.04751456 -0.18340615 181.82530843 -0.18904286 188.60316086 -0.20731354 C194.98736375 -0.22388814 201.37141365 -0.2259044 207.75563049 -0.21717453 C210.08628883 -0.21640908 212.41695571 -0.22068117 214.74759293 -0.23063278 C258.07962913 -0.40465983 296.27158717 14.14096113 327.37026978 44.66778564 C335.82133285 53.25263113 342.72223089 62.77794547 348.81997681 73.14044189 C349.16657349 73.72519287 349.51317017 74.30994385 349.87026978 74.91241455 C362.01010239 95.68527045 368.98307225 119.22610484 368.9604187 143.32046509 C368.96487538 144.81849873 368.96487538 144.81849873 368.9694221 146.34679568 C368.97806505 149.67954963 368.97961363 153.01226748 368.98110962 156.34503174 C368.98574103 158.7406217 368.99076612 161.13621093 368.99615479 163.53179932 C369.00925242 170.03232557 369.01575642 176.53284494 369.02016544 183.03338194 C369.02293631 187.10070264 369.02717527 191.168021 369.03166962 195.23534012 C369.04385836 206.5196003 369.05415726 217.80385861 369.05754471 229.08812523 C369.05776427 229.80934851 369.05798384 230.53057179 369.05821006 231.27365033 C369.05842834 231.99650446 369.05864662 232.7193586 369.05887151 233.46411741 C369.05931496 234.92865396 369.05976152 236.3931905 369.06021118 237.85772705 C369.06043261 238.58417268 369.06065404 239.31061832 369.06088218 240.05907746 C369.06482347 251.80904907 369.08225876 263.55895841 369.1055707 275.308906 C369.12936883 287.40264135 369.14175045 299.49634558 369.14291263 311.5901047 C369.14382485 318.36797965 369.14946156 325.14577352 369.16773224 331.92362595 C369.18430684 338.30782883 369.1863231 344.69187874 369.17759323 351.07609558 C369.17682778 353.40675392 369.18109987 355.7374208 369.19105148 358.06805801 C369.36507853 401.40009422 354.81945758 439.59205226 324.29263306 470.69073486 C315.70778757 479.14179794 306.18247323 486.04269597 295.81997681 492.14044189 C295.23522583 492.48703857 294.65047485 492.83363525 294.04800415 493.19073486 C273.27514825 505.33056748 249.73431386 512.30353734 225.63995361 512.28088379 C224.64126452 512.28385491 223.64257542 512.28682603 222.61362302 512.28988719 C219.28086907 512.29853014 215.94815122 512.30007872 212.61538696 512.30157471 C210.219797 512.30620611 207.82420777 512.31123121 205.42861938 512.31661987 C198.92809313 512.3297175 192.42757376 512.3362215 185.92703676 512.34063053 C181.85971606 512.3434014 177.7923977 512.34764035 173.72507858 512.3521347 C162.4408184 512.36432345 151.15656009 512.37462235 139.87229347 512.3780098 C138.79045855 512.37833915 138.79045855 512.37833915 137.68676838 512.37867515 C136.96391424 512.37889343 136.2410601 512.3791117 135.49630129 512.3793366 C134.03176474 512.37978005 132.5672282 512.38022661 131.10269165 512.38067627 C130.37624602 512.3808977 129.64980038 512.38111913 128.90134124 512.38134727 C117.15136963 512.38528855 105.40146029 512.40272385 93.6515127 512.42603579 C81.55777735 512.44983392 69.46407312 512.46221554 57.370314 512.46337771 C50.59243905 512.46428994 43.81464518 512.46992664 37.03679276 512.48819733 C30.65258987 512.50477193 24.26853996 512.50678819 17.88432312 512.49805832 C15.55366478 512.49729287 13.2229979 512.50156496 10.89236069 512.51151657 C-32.43967552 512.68554362 -70.63163355 498.13992266 -101.73031616 467.61309814 C-110.18137924 459.02825266 -117.08227727 449.50293832 -123.18002319 439.14044189 C-123.52661987 438.55569092 -123.87321655 437.97093994 -124.23031616 437.36846924 C-139.15366328 411.83265263 -143.96888288 384.22270078 -143.82699585 354.93341064 C-143.83379502 352.5269607 -143.84271086 350.12051597 -143.85354614 347.71408081 C-143.87607264 341.2594098 -143.86761464 334.80514453 -143.85165071 328.35046768 C-143.84267249 324.30057544 -143.84447118 320.25073325 -143.84910202 316.20083618 C-143.84986819 315.52315191 -143.85063435 314.84546765 -143.85142373 314.14724749 C-143.85302277 312.7694531 -143.85464384 311.39165874 -143.85628669 310.0138644 C-143.87045789 297.17115175 -143.8542884 284.32861914 -143.82728486 271.48593605 C-143.80495393 260.5272569 -143.80883651 249.56884283 -143.83187866 238.61016846 C-143.85879081 225.80542442 -143.86908541 213.00083715 -143.85381734 200.19606876 C-143.85222502 198.82406174 -143.85065316 197.45205468 -143.84910202 196.08004761 C-143.84833064 195.40544076 -143.84755927 194.73083391 -143.84676451 194.03578442 C-143.84249339 189.33985864 -143.8498857 184.64406472 -143.86149979 179.94815063 C-143.87611257 173.59803788 -143.86562045 167.2484178 -143.8370285 160.89835739 C-143.83050645 158.58998806 -143.83215941 156.2815761 -143.84334183 153.97322464 C-144.02984188 111.50758545 -129.37532516 73.193066 -99.75082397 42.66778564 C-73.70742027 16.77431011 -36.88675524 -0.03468097 0 0 Z " fill="#2492FE" transform="translate(143.18002319335938,-0.14044189453125)"/>
<path d="M0 0 C3.70028243 1.55130018 6.05396341 3.80491684 8.87568665 6.62844849 C9.35194101 7.10228844 9.82819538 7.57612839 10.31888169 8.06432712 C11.91179462 9.65160941 13.49746533 11.24593248 15.08325195 12.84033203 C16.2247571 13.98076408 17.36669512 15.12076299 18.5090332 16.26036072 C21.61087198 19.3573501 24.70642007 22.46055822 27.8007586 25.56503916 C31.04399359 28.81706332 34.29250525 32.06380862 37.54032898 35.31124878 C42.99864501 40.77050172 48.45307361 46.23361434 53.9050293 51.69921875 C60.19549788 58.00537769 66.49114192 64.30633068 72.78982764 70.60428154 C79.50612659 77.31990288 86.21860224 84.03933586 92.92997718 90.75987768 C94.85753852 92.68956344 96.78580319 94.61854396 98.71422768 96.5473671 C101.75599664 99.59014683 104.79518033 102.63548661 107.83245087 105.68275642 C108.94293523 106.79614172 110.05424433 107.90870518 111.16647148 109.0203495 C116.47637656 114.32852612 121.72762785 119.63133251 126.52550125 125.41545105 C128.55365884 127.59498154 130.83536196 129.05494619 133.36654663 130.59109497 C143.95840843 137.07787727 155.3833115 146.35501772 158.47291565 158.9238739 C160.67403164 170.68408726 160.35656115 182.8412556 160.0625 194.75 C160.0433894 195.57311424 160.02427879 196.39622849 160.00458908 197.24428558 C158.77798301 245.87851627 147.53991991 289.01391837 112 324 C103.75705351 331.80286591 94.76822292 338.25195059 85 344 C84.41524902 344.34659668 83.83049805 344.69319336 83.22802734 345.05029297 C55.93230597 361.00214331 26.36563978 364.86054321 -4.75 365.8125 C-5.45248116 365.83404774 -6.15496231 365.85559547 -6.87873077 365.87779617 C-37.27955019 366.68841283 -37.27955019 366.68841283 -49.07177734 356.19981384 C-54.20238284 351.12116416 -58.58984348 345.41685392 -62.50537109 339.36499023 C-64.26852389 336.79634996 -66.15626586 334.89323257 -68.54263306 332.89587402 C-73.53708985 328.59662485 -78.16406103 323.96849338 -82.8125 319.30102539 C-83.76911776 318.3441249 -84.72595708 317.38744585 -85.68299866 316.43096924 C-88.25699976 313.85725275 -90.8279257 311.28048482 -93.39827347 308.70312047 C-96.09370439 306.00139966 -98.79200464 303.30254753 -101.48999023 300.6033783 C-106.58809395 295.50217778 -111.68364517 290.39843561 -116.77826405 285.29375499 C-122.58287756 279.47792883 -128.39036174 273.66497278 -134.19807816 267.85224545 C-146.13522901 255.90466763 -158.06880449 243.95352495 -170 232 C-169.505 231.01 -169.505 231.01 -169 230 C-168.46375 230.4125 -167.9275 230.825 -167.375 231.25 C-156.53822108 239.23499499 -144.07336626 245.66085058 -131 249 C-130.3198584 249.18046875 -129.6397168 249.3609375 -128.93896484 249.546875 C-89.09715777 259.6893604 -41.00205288 253.32788342 -5 234 C-3.95070313 233.44699219 -2.90140625 232.89398438 -1.8203125 232.32421875 C6.19829918 227.88643747 13.50953152 222.49046848 20 216 C20.31399672 213.82676979 20.31399672 213.82676979 20.2784729 211.27975464 C20.28963638 210.28413513 20.30079987 209.28851563 20.31230164 208.26272583 C20.31554192 206.61843094 20.31554192 206.61843094 20.31884766 204.94091797 C20.32889328 203.78970459 20.3389389 202.63849121 20.34928894 201.45239258 C20.3802765 197.63232949 20.39719936 193.81233695 20.4140625 189.9921875 C20.43276161 187.34945054 20.45233406 184.70671963 20.4727478 182.06399536 C20.51958152 175.80963653 20.5563033 169.55526055 20.58942068 163.3008157 C20.63135426 155.48303286 20.68673452 147.66535289 20.7421875 139.84765625 C20.84107299 125.8984938 20.91956393 111.94930814 21 98 C-17.28 98 -55.56 98 -95 98 C-95 113.51 -95 129.02 -95 145 C-79.16 145 -63.32 145 -47 145 C-46.814375 152.30125 -46.62875 159.6025 -46.4375 167.125 C-46.31459595 170.56703857 -46.31459595 170.56703857 -46.18920898 174.07861328 C-46.1629098 175.90913158 -46.139979 177.7397027 -46.12109375 179.5703125 C-46.07505005 180.51124756 -46.02900635 181.45218262 -45.98156738 182.42163086 C-45.97822919 185.22348886 -46.0782248 187.35124497 -47 190 C-51.05493183 193.99924577 -56.27336895 196.4774241 -61.625 198.3125 C-62.91277344 198.77076172 -62.91277344 198.77076172 -64.2265625 199.23828125 C-71.64953795 201.27698578 -79.10876511 201.215188 -86.75 201.25 C-88.42449219 201.2809375 -88.42449219 201.2809375 -90.1328125 201.3125 C-104.90190907 201.3813536 -117.82754137 196.969796 -128.6171875 186.6875 C-139.64361589 174.25113486 -145.27669668 156.29871214 -147 140 C-147.08467529 139.3181665 -147.16935059 138.63633301 -147.2565918 137.93383789 C-148.24140386 129.01100294 -148.18609007 120.07015168 -148.18530273 111.10473633 C-148.18748155 108.33594195 -148.20567078 105.56755199 -148.22460938 102.79882812 C-148.30849224 76.32572122 -145.34723498 47.50656648 -126.45703125 27.36328125 C-116.4846739 17.7714272 -106.92670979 14.42501843 -93.25 14.5625 C-92.18958496 14.57079834 -91.12916992 14.57909668 -90.03662109 14.58764648 C-77.70881898 14.8531771 -67.34314275 17.44781113 -58 26 C-49.47082842 35.33034621 -46.36760039 46.69159652 -45 59 C-23.22 59 -1.44 59 21 59 C16.38459895 35.92299477 11.73081011 19.38596112 0 0 Z " fill="#1D75CD" transform="translate(354,148)"/>
<path d="M0 0 C3.59903204 2.77717027 6.83051739 5.74710996 10 9 C10.86625 9.804375 11.7325 10.60875 12.625 11.4375 C29.03120865 29.13893565 40 53.5382237 40 78 C18.22 78 -3.56 78 -26 78 C-27.98 70.08 -27.98 70.08 -30 62 C-34.94233558 50.85345594 -39.58390676 43.15891808 -51 38 C-58.69398881 35.31123193 -65.88522396 34.50513333 -74 34.5625 C-75.00289063 34.54251953 -76.00578125 34.52253906 -77.0390625 34.50195312 C-88.58298144 34.50941044 -97.54743852 38.2012278 -106 46 C-106.68964844 46.63550781 -107.37929687 47.27101563 -108.08984375 47.92578125 C-114.36755503 54.32398603 -117.63570044 61.82699493 -121 70 C-121.32871094 70.79277344 -121.65742188 71.58554688 -121.99609375 72.40234375 C-128.04859571 88.74096303 -128.18681109 106.71960781 -128.18530273 123.89526367 C-128.18748155 126.66405805 -128.20567078 129.43244801 -128.22460938 132.20117188 C-128.3030434 156.95464484 -126.02313117 185.83484242 -108.97265625 205.31640625 C-97.15860722 216.5750027 -83.86589239 219.35918538 -68.125 219.25 C-66.46404297 219.26160156 -66.46404297 219.26160156 -64.76953125 219.2734375 C-55.18884648 219.2509212 -46.12059645 218.64482847 -37.5625 214 C-36.11037109 213.2265625 -36.11037109 213.2265625 -34.62890625 212.4375 C-33.76136719 211.963125 -32.89382813 211.48875 -32 211 C-30.68 210.34 -29.36 209.68 -28 209 C-28 194.15 -28 179.3 -28 164 C-43.84 164 -59.68 164 -76 164 C-76 148.49 -76 132.98 -76 117 C-37.72 117 0.56 117 40 117 C40.44180035 146.08742118 40.44180035 146.08742118 40.55279255 160.49246025 C40.61366773 168.2725834 40.69084972 176.05140433 40.82983398 183.83056641 C40.9516443 190.65175798 41.01517878 197.47153976 41.04364967 204.29375076 C41.06393055 206.89258623 41.10353714 209.49134698 41.16303062 212.08958054 C41.63444061 233.53578027 41.63444061 233.53578027 37.60084534 238.78881836 C35.04825522 241.40451384 32.20238359 243.23760351 29 245 C27.83100766 245.83347684 26.66486573 246.670995 25.50390625 247.515625 C22.35168816 249.3743034 19.19345155 251.21291032 16 253 C15.12601563 253.51046875 14.25203125 254.0209375 13.3515625 254.546875 C-1.03245209 262.39270114 -17.91391926 267.22014734 -34 270 C-35.24265625 270.27585937 -36.4853125 270.55171875 -37.765625 270.8359375 C-66.41253955 276.78710297 -101.36645408 275.56653223 -128 263 C-129.52753906 262.30583984 -129.52753906 262.30583984 -131.0859375 261.59765625 C-158.56792523 248.54890389 -178.27040833 225.08938351 -188.83691406 196.75585938 C-204.8738888 151.5039472 -204.10984979 90.1244143 -184.17089844 46.32958984 C-178.66142122 34.79493176 -171.44333532 24.59326718 -163 15 C-162.4740625 14.39027344 -161.948125 13.78054687 -161.40625 13.15234375 C-145.08580252 -4.45875136 -122.15237312 -13.78980019 -99 -18 C-98.07098877 -18.17740723 -97.14197754 -18.35481445 -96.18481445 -18.53759766 C-63.85788028 -23.23113643 -27.64633453 -17.83375031 0 0 Z " fill="#FEFEFE" transform="translate(335,129)"/>
</svg>
