<?xml version="1.0" encoding="UTF-8"?>
<svg version="1.1" xmlns="http://www.w3.org/2000/svg" width="512" height="512">
<path d="M0 0 C1.85624401 -0.00532945 3.7124837 -0.01239743 5.56871521 -0.02104706 C10.65375577 -0.03964842 15.73850459 -0.03337796 20.82355714 -0.02289402 C26.31380377 -0.01589491 31.80399091 -0.03190541 37.29421997 -0.04489136 C48.04391871 -0.06652493 58.79351156 -0.06640603 69.54322492 -0.05826581 C78.28145279 -0.05196377 87.0196498 -0.05310474 95.75787735 -0.05953789 C97.00197033 -0.06043954 98.24606332 -0.0613412 99.52785609 -0.06227018 C102.05530198 -0.0641214 104.58274787 -0.06598396 107.11019374 -0.06785773 C124.07752453 -0.07972649 141.04484263 -0.08413854 158.01217461 -0.07292271 C159.00686111 -0.07226575 159.00686111 -0.07226575 160.02164229 -0.07159552 C165.40626691 -0.0679889 170.79089136 -0.06415403 176.17551581 -0.06030459 C197.17631372 -0.04545896 218.17698156 -0.05423522 239.17776489 -0.08226013 C262.78761286 -0.11370672 286.39740272 -0.12858413 310.0072757 -0.11846012 C312.52599024 -0.11743758 315.04470478 -0.11644297 317.56341934 -0.11547661 C319.42223614 -0.11476202 319.42223614 -0.11476202 321.31860479 -0.114033 C330.04349148 -0.11186992 338.76831752 -0.12166743 347.49319077 -0.13624763 C358.1301836 -0.15377539 368.7669997 -0.15364713 379.4039856 -0.13089598 C384.82931385 -0.11975774 390.25433078 -0.11658213 395.67964554 -0.13519669 C400.65031696 -0.15203164 405.62040623 -0.14560927 410.59104015 -0.1209799 C412.3850184 -0.11610613 414.17904388 -0.11958621 415.97298251 -0.13246734 C429.40047114 -0.22189091 440.15679586 1.63742066 450.82962036 10.57325745 C454.1450138 13.84910345 456.66746018 17.37449547 458.79446411 21.5146637 C459.28566652 22.41113702 459.28566652 22.41113702 459.78679222 23.32572091 C463.8472133 31.81143338 463.35513961 40.54354162 463.30912781 49.72019958 C463.31445726 51.5764436 463.32152524 53.43268329 463.33017486 55.2889148 C463.34877623 60.37395536 463.34250577 65.45870418 463.33202183 70.54375672 C463.32502272 76.03400336 463.34103322 81.52419049 463.35401917 87.01441956 C463.37565274 97.7641183 463.37553384 108.51371115 463.36739362 119.2634245 C463.36109158 128.00165237 463.36223254 136.73984939 463.3686657 145.47807693 C463.36956735 146.72216992 463.37046901 147.9662629 463.37139798 149.24805567 C463.3732492 151.77550157 463.37511176 154.30294745 463.37698554 156.83039333 C463.3888543 173.79772412 463.39326634 190.76504222 463.38205051 207.73237419 C463.38161254 208.39549853 463.38117457 209.05862286 463.38072333 209.74184188 C463.37711671 215.12646649 463.37328183 220.51109095 463.3694324 225.89571539 C463.35458677 246.89651331 463.36336302 267.89718114 463.39138794 288.89796448 C463.42283453 312.50781244 463.43771194 336.1176023 463.42758793 359.72747529 C463.42656539 362.24618982 463.42557078 364.76490437 463.42460442 367.28361893 C463.42412803 368.52283012 463.42365164 369.76204132 463.42316081 371.03880437 C463.42099773 379.76369106 463.43079523 388.48851711 463.44537544 397.21339035 C463.4629032 407.85038319 463.46277494 418.48719929 463.44002379 429.12418519 C463.42888555 434.54951344 463.42570993 439.97453036 463.44432449 445.39984512 C463.46115945 450.37051654 463.45473708 455.34060582 463.43010771 460.31123973 C463.42523394 462.10521799 463.42871402 463.89924347 463.44159514 465.6931821 C463.53101872 479.12067072 461.67170715 489.87699545 452.73587036 500.54981995 C449.46002435 503.86521339 445.93463233 506.38765976 441.79446411 508.5146637 C440.89799079 509.00586611 440.89799079 509.00586611 439.9834069 509.5069918 C431.49769443 513.56741289 422.76558619 513.0753392 413.58892822 513.02932739 C411.73268421 513.03465685 409.87644452 513.04172483 408.02021301 513.05037445 C402.93517245 513.06897581 397.85042363 513.06270535 392.76537108 513.05222142 C387.27512445 513.0452223 381.78493732 513.0612328 376.29470825 513.07421875 C365.54500951 513.09585232 354.79541666 513.09573342 344.04570331 513.08759321 C335.30747543 513.08129116 326.56927842 513.08243213 317.83105087 513.08886528 C316.58695789 513.08976694 315.3428649 513.09066859 314.06107213 513.09159757 C311.53362624 513.09344879 309.00618036 513.09531135 306.47873448 513.09718513 C289.51140369 513.10905389 272.54408559 513.11346593 255.57675362 513.1022501 C254.91362928 513.10181213 254.25050494 513.10137416 253.56728593 513.10092292 C248.18266132 513.09731629 242.79803686 513.09348142 237.41341241 513.08963198 C216.4126145 513.07478636 195.41194666 513.08356261 174.41116333 513.11158752 C150.80131537 513.14303412 127.1915255 513.15791152 103.58165252 513.14778751 C101.06293799 513.14676497 98.54422344 513.14577036 96.02550888 513.144804 C94.78629768 513.14432761 93.54708649 513.14385122 92.27032343 513.14336039 C83.54543675 513.14119731 74.8206107 513.15099482 66.09573746 513.16557503 C55.45874462 513.18310279 44.82192852 513.18297453 34.18494262 513.16022337 C28.75961437 513.14908513 23.33459744 513.14590952 17.90928268 513.16452408 C12.93861127 513.18135903 7.96852199 513.17493666 2.99788807 513.15030729 C1.20390982 513.14543353 -0.59011566 513.1489136 -2.38405429 513.16179473 C-15.81154291 513.2512183 -26.56786764 511.39190673 -37.24069214 502.45606995 C-40.55608558 499.18022394 -43.07853195 495.65483192 -45.20553589 491.5146637 C-45.6967383 490.61819038 -45.6967383 490.61819038 -46.197864 489.70360649 C-50.25828508 481.21789401 -49.76621139 472.48578577 -49.72019958 463.30912781 C-49.72552904 461.4528838 -49.73259702 459.5966441 -49.74124664 457.74041259 C-49.759848 452.65537203 -49.75357755 447.57062321 -49.74309361 442.48557067 C-49.7360945 436.99532404 -49.75210499 431.5051369 -49.76509094 426.01490784 C-49.78672452 415.2652091 -49.78660561 404.51561625 -49.7784654 393.76590289 C-49.77216335 385.02767502 -49.77330432 376.28947801 -49.77973747 367.55125046 C-49.78063913 366.30715747 -49.78154078 365.06306449 -49.78246976 363.78127172 C-49.78432098 361.25382583 -49.78618354 358.72637994 -49.78805732 356.19893406 C-49.79992608 339.23160328 -49.80433812 322.26428517 -49.79312229 305.2969532 C-49.79246534 304.3022667 -49.79246534 304.3022667 -49.79179511 303.28748552 C-49.78818849 297.9028609 -49.78435361 292.51823644 -49.78050418 287.133612 C-49.76565855 266.13281409 -49.7744348 245.13214625 -49.80245972 224.13136292 C-49.83390631 200.52151495 -49.84878372 176.91172509 -49.8386597 153.30185211 C-49.83763717 150.78313757 -49.83664256 148.26442302 -49.83567619 145.74570847 C-49.8351998 144.50649727 -49.83472341 143.26728607 -49.83423259 141.99052302 C-49.8320695 133.26563633 -49.84186701 124.54081028 -49.85644722 115.81593704 C-49.87397498 105.17894421 -49.87384672 94.54212811 -49.85109556 83.9051422 C-49.83995732 78.47981395 -49.83678171 73.05479703 -49.85539627 67.62948227 C-49.87223122 62.65881085 -49.86580886 57.68872157 -49.84117948 52.71808766 C-49.83630572 50.9241094 -49.8397858 49.13008393 -49.85266692 47.3361453 C-49.94209049 33.90865667 -48.08277893 23.15233195 -39.14694214 12.47950745 C-35.87109613 9.164114 -32.34570411 6.64166763 -28.20553589 4.5146637 C-27.60788701 4.18719542 -27.01023813 3.85972715 -26.39447868 3.52233559 C-17.90876621 -0.5380855 -9.17665796 -0.0460118 0 0 Z M127.41946411 156.5927887 C115.75576391 169.57559785 108.26180169 185.41815794 103.41946411 202.0771637 C103.07975586 203.24215393 103.07975586 203.24215393 102.73318481 204.43067932 C98.40222896 220.43291831 97.30827444 235.99086565 97.40335083 252.50856018 C97.41939267 255.81245015 97.40343504 259.11510807 97.38430786 262.41896057 C97.34623329 299.04601686 105.39663613 334.23838538 131.79446411 360.9521637 C155.41768988 384.07457708 185.9906729 391.16871417 218.19387817 390.93409729 C246.51304814 390.53573098 280.54521072 384.5875224 303.34527588 366.39050293 C305.79446411 364.5146637 305.79446411 364.5146637 308.38549805 363.05178833 C312.30900375 360.44258596 315.19715244 357.93120794 316.36649323 353.20040512 C317.31643503 345.91329338 317.08979412 338.56153769 316.98977661 331.22950745 C316.99495341 329.11397241 317.0046182 326.99844347 317.01882935 324.88294983 C317.04001194 317.07264628 316.97456572 309.2623016 316.91946411 301.4521637 C316.85758911 275.2481012 316.85758911 275.2481012 316.79446411 248.5146637 C281.48446411 248.5146637 246.17446411 248.5146637 209.79446411 248.5146637 C209.79446411 262.3746637 209.79446411 276.2346637 209.79446411 290.5146637 C224.31446411 290.5146637 238.83446411 290.5146637 253.79446411 290.5146637 C253.79446411 297.3415387 253.79446411 304.1684137 253.79446411 311.2021637 C253.82540161 314.42292664 253.82540161 314.42292664 253.85696411 317.70875549 C253.83927501 319.41883323 253.81863963 321.12888411 253.79446411 322.83888245 C253.81380005 323.72015808 253.83313599 324.60143372 253.85305786 325.50941467 C253.71414965 331.63092585 253.71414965 331.63092585 251.06312561 334.17832947 C242.75343455 339.49052015 232.5913572 342.09998039 222.79446411 342.5146637 C221.99137817 342.5662262 221.18829224 342.6177887 220.36087036 342.6709137 C205.83089324 343.18907038 190.62288463 339.95327502 179.54446411 330.0771637 C170.87138577 320.57291535 166.01578092 308.03024262 163.79446411 295.5146637 C163.61858765 294.53336487 163.44271118 293.55206604 163.26150513 292.54103088 C161.56182122 281.67333207 161.45576098 270.89796674 161.47879028 259.91896057 C161.48194482 256.78383892 161.45842621 253.64966917 161.43313599 250.5146637 C161.35939359 227.21894854 163.46860551 200.141475 180.10696411 182.07325745 C188.8277448 174.0186475 198.97632217 170.55302553 210.77493286 170.49513245 C222.92901822 170.98095192 234.77666591 172.53739493 243.79446411 181.5146637 C250.99231866 189.49898216 253.25129984 200.34200662 255.79446411 210.5146637 C275.59446411 210.5146637 295.39446411 210.5146637 315.79446411 210.5146637 C313.36783447 183.82173765 303.62914538 160.13240986 282.79446411 142.5146637 C261.59014588 126.95090303 235.91857422 122.06321917 210.10696411 122.1396637 C209.0613884 122.14047943 209.0613884 122.14047943 207.99468994 122.14131165 C176.38500063 122.2542405 149.60636566 133.77557744 127.41946411 156.5927887 Z " fill="#000000" transform="translate(49.205535888671875,-0.5146636962890625)"/>
</svg>
